0
SECTION
2
HEADER
9
$INSUNITS
70
4
9
$ACADVER
1
AC1014
9
$HANDSEED
5
FFFF
0
ENDSEC
0
SECTION
2
TABLES
0
TABLE
2
VPORT
5
8
100
AcDbSymbolTable
0
ENDTAB
0
TABLE
2
LTYPE
5
5
100
AcDbSymbolTable
0
LTYPE
5
14
100
AcDbSymbolTableRecord
100
AcDbLinetypeTableRecord
2
BYBLOCK
70
0
0
LTYPE
5
15
100
AcDbSymbolTableRecord
100
AcDbLinetypeTableRecord
2
BYLAYER
70
0
0
LTYPE
5
16
100
AcDbSymbolTableRecord
100
AcDbLinetypeTableRecord
2
DASHED
70
0
3
Dashed __ __ __ __ __ __ __ __ __ __ __ __ __ _
72
65
73
2
40
0.75
49
0.5
74
0
49
-0.25
74
0
0
ENDTAB
0
TABLE
2
LAYER
5
2
100
AcDbSymbolTable
70
2
0
LAYER
5
50
100
AcDbSymbolTableRecord
100
AcDbLayerTableRecord
2
0
70
0
62
7
6
CONTINUOUS
0
ENDTAB
0
TABLE
2
STYLE
5
3
100
AcDbSymbolTable
70
1
0
STYLE
5
11
100
AcDbSymbolTableRecord
100
AcDbTextStyleTableRecord
2
STANDARD
70
0
0
ENDTAB
0
TABLE
2
VIEW
5
6
100
AcDbSymbolTable
70
0
0
ENDTAB
0
TABLE
2
UCS
5
7
100
AcDbSymbolTable
70
0
0
ENDTAB
0
TABLE
2
APPID
5
9
100
AcDbSymbolTable
70
2
0
APPID
5
12
100
AcDbSymbolTableRecord
100
AcDbRegAppTableRecord
2
ACAD
70
0
0
ENDTAB
0
TABLE
2
DIMSTYLE
5
A
100
AcDbSymbolTable
70
1
0
ENDTAB
0
TABLE
2
BLOCK_RECORD
5
1
100
AcDbSymbolTable
70
1
0
BLOCK_RECORD
5
1F
100
AcDbSymbolTableRecord
100
AcDbBlockTableRecord
2
*MODEL_SPACE
0
BLOCK_RECORD
5
1B
100
AcDbSymbolTableRecord
100
AcDbBlockTableRecord
2
*PAPER_SPACE
0
ENDTAB
0
ENDSEC
0
SECTION
2
BLOCKS
0
BLOCK
5
20
100
AcDbEntity
100
AcDbBlockBegin
2
*MODEL_SPACE
0
ENDBLK
5
21
100
AcDbEntity
100
AcDbBlockEnd
0
BLOCK
5
1C
100
AcDbEntity
100
AcDbBlockBegin
2
*PAPER_SPACE
0
ENDBLK
5
1D
100
AcDbEntity
100
AcDbBlockEnd
0
ENDSEC
0
SECTION
2
ENTITIES
0
CIRCLE
5
100
100
AcDbEntity
8
0
100
AcDbCircle
10
73.500000000000057
20
-1.4072076837123864e-14
30
0
40
2.0000000000000018
210
-5.4738221262688179e-48
220
-1.3494013367335085e-79
230
1
0
CIRCLE
5
101
100
AcDbEntity
8
0
100
AcDbCircle
10
-23.500000000000046
20
2.0816681711721693e-15
30
0
40
2.0000000000000018
210
-5.4738221262688179e-48
220
-1.3494013367335085e-79
230
1
0
CIRCLE
5
102
100
AcDbEntity
8
0
100
AcDbCircle
10
-6.3882575891078002
20
8.6849359252163154
30
0
40
0.99999999999999978
210
-2.4651903288156624e-32
220
-6.0771633572862752e-64
230
1
0
CIRCLE
5
103
100
AcDbEntity
8
0
100
AcDbCircle
10
24.999999999999993
20
-23.499999999999996
30
0
40
2.0000000000000018
210
-5.4738221262688179e-48
220
-1.3494013367335085e-79
230
1
0
CIRCLE
5
104
100
AcDbEntity
8
0
100
AcDbCircle
10
-17.693651149326392
20
-28.999999999999982
30
0
40
1.0000000000000009
210
-5.4738221262688203e-48
220
-1.3494013367335091e-79
230
1
0
CIRCLE
5
105
100
AcDbEntity
8
0
100
AcDbCircle
10
-17.693651149326385
20
-9.0000000000000036
30
0
40
1.0000000000000009
210
-5.4738221262688203e-48
220
-1.3494013367335091e-79
230
1
0
CIRCLE
5
106
100
AcDbEntity
8
0
100
AcDbCircle
10
22.499999999999961
20
-29.000000000000004
30
0
40
1.0000000000000009
210
-5.4738221262688191e-48
220
-1.3494013367335088e-79
230
1
0
CIRCLE
5
107
100
AcDbEntity
8
0
100
AcDbCircle
10
12.832901873195894
20
-1.4999999999999929
30
0
40
1.4999999999999991
210
-2.4651903288156624e-32
220
-6.0771633572862806e-64
230
1
0
CIRCLE
5
108
100
AcDbEntity
8
0
100
AcDbCircle
10
28.845762537014398
20
8.6849359252163154
30
0
40
0.99999999999999645
210
-5.4738221262688191e-48
220
-1.3494013367335088e-79
230
1
0
CIRCLE
5
109
100
AcDbEntity
8
0
100
AcDbCircle
10
12.306348850673629
20
-19
30
0
40
0.99999999999999645
210
-5.4738221262688203e-48
220
-1.3494013367335091e-79
230
1
0
CIRCLE
5
110
100
AcDbEntity
8
0
100
AcDbCircle
10
22.499999999999961
20
-9.0000000000000053
30
0
40
1.0000000000000009
210
-5.4738221262688191e-48
220
-1.3494013367335088e-79
230
1
0
CIRCLE
5
111
100
AcDbEntity
8
0
100
AcDbCircle
10
52.499999999999929
20
-19.000000000000004
30
0
40
0.99999999999999645
210
-5.4738221262688191e-48
220
-1.3494013367335088e-79
230
1
0
CIRCLE
5
112
100
AcDbEntity
8
0
100
AcDbCircle
10
25.000000000000007
20
23.499999999999986
30
-2.2204460492503131e-15
40
2.0000000000000018
210
-5.4738221262688191e-48
220
-1.3494013367335088e-79
230
1
0
CIRCLE
5
113
100
AcDbEntity
8
0
100
AcDbCircle
10
-6.3882575891078002
20
28.848381984327979
30
0
40
0.99999999999999978
210
-2.4651903288156624e-32
220
-6.0771633572862752e-64
230
1
0
ARC
5
114
100
AcDbEntity
8
0
100
AcDbCircle
10
28.883595483383608
20
30.835042721926548
30
1.1631872018321235e-46
40
1.0000000000000009
210
-6.2812108898934617e-46
220
-4.9303806576313249e-32
230
1
100
AcDbArc
50
0
51
89.999999999999801
0
LINE
5
115
100
AcDbEntity
8
0
100
AcDbLine
10
28.883595483383612
20
31.835042721926548
30
4.9303806576313413e-32
11
-30.936464496389316
21
31.835042721926552
31
-1.0947644252537633e-45
0
SPLINE
5
116
100
AcDbEntity
8
0
100
AcDbSpline
70
0
71
3
72
11
73
7
74
0
42
0.000000001
43
0.0000000001
44
0.0000000001
40
-0.78478917581185526
40
-0.78478917581185526
40
-0.78478917581185526
40
-0.78478917581185526
40
0.35006282368994501
40
0.35006282368994501
40
0.35006282368994501
40
0.78478917581181928
40
0.78478917581181928
40
0.78478917581181928
40
0.78478917581181928
10
-30.936464496389313
20
31.835042721926552
30
0
10
-31.693262811320679
20
31.834735717432633
30
0
10
-32.429706219150191
20
31.364777247331638
30
0
10
-32.748645311502692
20
30.678790990702453
30
0
10
-32.870820915218715
20
30.416011083647557
30
0
10
-32.934925118094739
20
30.126370291053767
30
0
10
-32.9350427219266
20
29.836464496389329
30
0
0
LINE
5
117
100
AcDbEntity
8
0
100
AcDbLine
10
-32.935042721926607
20
29.836464496389326
30
0
11
-32.935042721926621
21
-29.836464496389326
31
0
0
SPLINE
5
118
100
AcDbEntity
8
0
100
AcDbSpline
70
0
71
3
72
11
73
7
74
0
42
0.000000001
43
0.0000000001
44
0.0000000001
40
-0.78478917581181962
40
-0.78478917581181962
40
-0.78478917581181962
40
-0.78478917581181962
40
0.35006282368998465
40
0.35006282368998465
40
0.35006282368998465
40
0.78478917581186114
40
0.78478917581186114
40
0.78478917581186114
40
0.78478917581186114
10
-32.935042721926621
20
-29.836464496389322
30
0
10
-32.93473571743268
20
-30.593262811320692
30
0
10
-32.464777247331661
20
-31.329706219150189
30
0
10
-31.778790990702461
20
-31.648645311502669
30
0
10
-31.516011083647562
20
-31.770820915218682
30
0
10
-31.226370291053769
20
-31.834925118094702
30
0
10
-30.936464496389327
20
-31.835042721926552
30
0
0
LINE
5
119
100
AcDbEntity
8
0
100
AcDbLine
10
-30.936464496389323
20
-31.835042721926555
30
0
11
25.499083701910116
21
-31.835042721926555
31
1.0947644252537633e-45
0
ARC
5
120
100
AcDbEntity
8
0
100
AcDbCircle
10
25.499083701910109
20
-30.835042721926555
30
2.2204460492503131e-15
40
1.0000000000000009
210
9.8607613152626308e-30
220
-2.2204460492503111e-15
230
1
100
AcDbArc
50
-89.999999999999588
51
0
0
LINE
5
121
100
AcDbEntity
8
0
100
AcDbLine
10
26.499083701910109
20
-30.835042721926555
30
2.2204460492503131e-15
11
26.499083701910109
21
-29.499999999999996
31
0
0
ARC
5
122
100
AcDbEntity
8
0
100
AcDbCircle
10
27.499083701910113
20
-29.499999999999996
30
0
40
1.0000000000000009
210
1.0947644252537597e-47
220
2.0110496238111114e-63
230
1
100
AcDbArc
50
90
51
180
0
LINE
5
123
100
AcDbEntity
8
0
100
AcDbLine
10
27.499083701910113
20
-28.499999999999996
30
-2.011049623811113e-63
11
50.999999999999943
21
-28.499999999999996
31
7.1149656335978322e-47
0
ARC
5
124
100
AcDbEntity
8
0
100
AcDbCircle
10
50.999999999999936
20
-27.499999999999996
30
-1.8554268380085721e-77
40
1.0000000000000009
210
-6.3497447494560428e-61
220
7.1149656335978264e-47
230
1
100
AcDbArc
50
-89.999999999999588
51
0
0
LINE
5
125
100
AcDbEntity
8
0
100
AcDbLine
10
51.999999999999943
20
-27.499999999999996
30
3.0385816786431324e-63
11
51.999999999999943
21
-24.561541131290433
31
0
0
ARC
5
126
100
AcDbEntity
8
0
100
AcDbCircle
10
52.999999999999936
20
-24.561541131290433
30
0
40
1.0000000000000009
210
1.0947644252537597e-47
220
2.0110496238111114e-63
230
1
100
AcDbArc
50
90
51
180
0
LINE
5
127
100
AcDbEntity
8
0
100
AcDbLine
10
52.999999999999936
20
-23.561541131290433
30
-2.011049623811113e-63
11
81.935042721926578
21
-23.561541131290461
31
3.5032461608120427e-45
0
ARC
5
128
100
AcDbEntity
8
0
100
AcDbCircle
10
81.935042721926578
20
-22.561541131290465
30
6.3291068334983193e-47
40
0.99999999999999645
210
-9.2444637330587855e-33
220
3.4399550924770719e-45
230
1
100
AcDbArc
50
-90
51
0
0
LINE
5
129
100
AcDbEntity
8
0
100
AcDbLine
10
82.935042721926578
20
-22.561541131290461
30
9.2444637330588156e-33
11
82.935042721926621
21
22.561541131290479
31
0
0
ARC
5
130
100
AcDbEntity
8
0
100
AcDbCircle
10
81.935042721926607
20
22.561541131290468
30
2.2579516270858869e-46
40
1.0000000000000142
210
-2.1211060739291455e-46
220
4.9303806576313347e-32
230
1
100
AcDbArc
50
0
51
90
0
LINE
5
131
100
AcDbEntity
8
0
100
AcDbLine
10
81.935042721926607
20
23.561541131290468
30
-4.9303806576312811e-32
11
30.883595483383601
21
23.561541131290475
31
-2.2204460492503131e-15
0
ARC
5
132
100
AcDbEntity
8
0
100
AcDbCircle
10
30.883595483383605
20
24.561541131290475
30
-2.2204460492503131e-15
40
1.0000000000000009
210
0
220
-3.3265311250063654e-110
230
1
100
AcDbArc
50
180
51
269.99999999999983
0
LINE
5
133
100
AcDbEntity
8
0
100
AcDbLine
10
29.883595483383605
20
24.561541131290475
30
-2.2204460492503131e-15
11
29.883595483383608
21
30.835042721926548
31
7.4443980917255907e-46
0
ENDSEC
0
SECTION
2
OBJECTS
0
DICTIONARY
5
C
100
AcDbDictionary
3
ACAD_GROUP
350
D
3
ACAD_MLINESTYLE
350
17
0
DICTIONARY
5
D
100
AcDbDictionary
0
DICTIONARY
5
1A
330
C
100
AcDbDictionary
0
DICTIONARY
5
17
100
AcDbDictionary
0
ENDSEC
0
EOF
